<svg width="310" height="385" viewBox="0 0 310 385" fill="none" xmlns="http://www.w3.org/2000/svg">
<g filter="url(#filter0_d_2_4)">
<path d="M74.6395 355.419C66.0605 355.419 56.8746 354.16 46.8966 351.435C-7.24098 336.585 -37.0234 315.716 -55.9007 279.376C-74.8792 242.847 -83.4751 191.243 -93.5712 102.783C-98.0882 63.2522 -84.0314 27.8094 -52.9343 0.300168C-4.37567 -42.628 80.859 -60.0821 149.711 -41.1965C183.791 -31.8485 219.877 -7.71976 248.733 25.0153C277.234 57.3365 295.302 94.0039 298.302 125.601C301.522 159.353 287.751 184.948 258.508 199.625C224.546 216.666 201.084 248.211 178.414 278.721C149.222 317.993 121.378 355.419 74.6227 355.419H74.6395ZM91.1909 -47.2847C37.6939 -47.2847 -16.8313 -29.6581 -51.9904 1.43848C-82.7167 28.6027 -96.5882 63.5972 -92.1385 102.61C-82.0593 190.881 -73.4803 242.347 -54.6198 278.669C-35.9615 314.595 -6.4488 335.257 47.2674 349.986C57.0431 352.659 66.0773 353.901 74.4878 353.901C120.687 353.901 148.295 316.768 177.251 277.824C200.039 247.176 223.602 215.493 257.868 198.297C286.521 183.913 299.988 158.836 296.853 125.756C293.87 94.4696 275.936 58.1126 247.637 26.0157C218.967 -6.51246 183.134 -30.486 149.306 -39.7477C130.766 -44.8356 111.046 -47.2675 91.1741 -47.2675L91.1909 -47.2847Z" fill="url(#paint0_linear_2_4)"/>
<path d="M87.1462 356.645C81.9886 356.645 76.5614 356.248 70.8476 355.437C15.3448 347.452 -16.713 330.446 -39.7534 296.745C-62.9288 262.855 -77.6093 212.717 -98.1721 126.171C-107.358 87.4857 -97.6328 50.5596 -70.0415 19.394C-26.9607 -29.2947 55.5435 -57.2523 126.131 -47.0937C161.071 -42.0748 199.77 -22.6201 232.316 6.26891C264.458 34.7957 286.757 68.945 293.499 99.9209C300.713 133.018 290.095 160.148 262.824 178.361C231.137 199.523 211.619 233.759 192.741 266.856C166.482 312.906 141.537 356.645 87.1462 356.645ZM71.0499 353.954C136.042 363.285 162.976 316.097 191.477 266.114C210.439 232.862 230.058 198.471 262.015 177.119C288.746 159.268 299.129 132.69 292.067 100.249C285.375 69.5659 263.245 35.727 231.339 7.38998C199.011 -21.3093 160.582 -40.6433 125.912 -45.6277C55.7794 -55.7173 -26.1854 -27.9667 -68.9796 20.3771C-96.2338 51.1632 -105.841 87.6237 -96.7732 125.809C-76.2609 212.165 -61.6141 262.182 -38.5736 295.883C-15.786 329.222 15.9853 346.038 71.0499 353.954Z" fill="url(#paint1_linear_2_4)"/>
<path d="M97.3933 356.421C96.6348 356.421 95.8764 356.421 95.1011 356.404C39.0589 355.404 5.21453 342.52 -21.6688 311.941C-48.7208 281.189 -69.2499 233.259 -99.9761 149.921C-113.713 112.667 -108.454 74.8097 -84.7731 40.4362C-47.8106 -13.2542 30.7832 -51.2669 102.028 -50.0078C137.305 -49.3697 178.027 -34.8993 213.776 -10.2704C249.069 14.0481 275.279 45.1446 285.661 75.0512C296.752 107.01 289.454 135.244 264.559 156.734C235.636 181.673 220.332 218.099 205.534 253.318C183.252 306.335 162.2 356.456 97.3933 356.456V356.421ZM95.1348 354.921C160.767 356.059 181.869 305.87 204.202 252.714C219.068 217.34 234.44 180.759 263.615 155.595C288.021 134.554 295.167 106.872 284.279 75.5514C273.998 45.938 247.991 15.1001 212.95 -9.04587C177.437 -33.5023 137.002 -47.9037 101.995 -48.5246C31.1709 -49.7836 -46.9004 -12.0124 -83.5933 41.2985C-106.971 75.2582 -112.179 112.65 -98.6278 149.404C-67.9858 232.552 -47.4904 280.378 -20.607 310.958C5.98985 341.192 39.514 353.938 95.1179 354.938L95.1348 354.921Z" fill="url(#paint2_linear_2_4)"/>
<path d="M88.1053 356.179C49.6427 356.179 22.338 346.383 -1.91605 324.789C-32.4232 297.642 -58.5144 252.627 -98.9322 173.739C-117 138.486 -116.276 100.249 -96.8759 63.1675C-66.5878 5.26888 6.8653 -42.2815 77.7565 -49.9047C112.848 -53.6819 155.002 -44.3856 193.397 -24.4134C231.32 -4.68271 261.035 22.9127 274.907 51.3188C289.722 81.6565 285.846 110.597 263.682 135.019C237.944 163.391 227.09 201.438 216.606 238.243C200.628 294.297 185.526 347.228 119.27 354.351C108.095 355.558 97.7463 356.162 88.0885 356.162L88.1053 356.179ZM93.6 -49.2321C88.2402 -49.2321 82.9983 -48.9561 77.9082 -48.4215C7.45521 -40.85 -65.5091 6.37271 -95.5949 63.8747C-114.759 100.508 -115.467 138.262 -97.6343 173.049C-57.3009 251.765 -31.2771 296.659 -0.955324 323.668C29.0462 350.367 63.8513 358.818 119.135 352.885C184.414 345.866 199.381 293.382 215.224 237.829C225.758 200.869 236.663 162.649 262.637 134.019C284.346 110.08 288.138 81.7255 273.626 51.9914C259.889 23.8786 230.41 -3.49266 192.757 -23.0854C160.176 -40.0394 124.899 -49.2493 93.6169 -49.2493L93.6 -49.2321Z" fill="url(#paint3_linear_2_4)"/>
<path d="M89.1351 356.542C62.1506 356.542 40.1888 349.54 19.2383 335.069C-14.269 311.924 -45.5346 270.496 -95.0371 197.247C-117.167 164.512 -121.027 126.465 -106.178 87.245C-83.0028 26.0004 -15.7691 -30.346 53.6895 -46.7653C88.0732 -54.8887 131.002 -50.9219 171.504 -35.8824C211.501 -21.0326 244.266 2.665 261.425 29.1221C279.746 57.3729 279.341 86.5896 260.262 113.599C238.098 144.971 231.861 184.088 225.827 221.911C216.641 279.533 207.961 333.965 143.053 349.298C122.777 354.093 105.08 356.525 89.1351 356.525V356.542ZM91.3936 -49.4041C78.23 -49.4041 65.6395 -48.0589 54.0266 -45.3166C-15.0106 -29.0008 -81.8061 26.9662 -104.83 87.7797C-119.493 126.517 -115.701 164.081 -93.8573 196.402C-44.4559 269.496 -13.2746 310.82 20.0473 333.827C52.9984 356.594 88.5452 360.647 142.733 347.849C206.697 332.741 215.293 278.792 224.395 221.669C230.446 183.674 236.716 144.368 259.082 112.719C277.774 86.2619 278.178 57.6317 260.211 29.9327C243.221 3.73433 210.709 -19.739 170.999 -34.4854C144.452 -44.3335 116.878 -49.4214 91.3767 -49.4214L91.3936 -49.4041Z" fill="url(#paint4_linear_2_4)"/>
<path d="M96.095 356.351C76.5435 356.351 58.9639 351.781 41.4518 342.64C5.43315 323.841 -30.5349 286.621 -88.3974 220.099C-114.27 190.348 -122.613 153.077 -112.55 112.304C-96.8417 48.6279 -36.8218 -15.6867 30.176 -40.6433C63.3293 -52.9923 106.427 -54.4066 148.412 -44.524C189.875 -34.7621 225.236 -15.3418 245.412 8.76972C266.969 34.537 270.036 63.5811 254.311 92.7633C236.04 126.654 234.523 166.271 233.04 204.577C230.782 262.924 228.658 318.028 166.059 341.329C139.142 351.35 116.557 356.351 96.1119 356.351H96.095ZM93.2297 -49.5601C70.56 -49.5601 49.0702 -46.1107 30.6648 -39.2463C-35.9116 -14.4622 -95.5438 49.4385 -111.151 112.667C-121.096 152.956 -112.854 189.761 -87.3187 219.116C-29.5742 285.5 6.29274 322.633 42.0923 341.329C77.5042 359.801 113.27 359.404 165.52 339.949C227.208 316.976 229.315 262.354 231.557 204.525C233.04 166.046 234.591 126.257 253.013 92.0562C268.418 63.4604 265.401 35.0026 244.282 9.75281C224.309 -14.1345 189.235 -33.3823 148.075 -43.0752C129.687 -47.4042 111.096 -49.5429 93.2297 -49.5429V-49.5601Z" fill="url(#paint5_linear_2_4)"/>
<path d="M105.584 355.11C91.595 355.11 78.128 352.488 64.3745 347.366C26.3838 333.206 -13.7474 300.747 -79.0934 241.934C-108.286 215.649 -121.028 179.689 -115.887 137.968C-107.881 72.8085 -55.9686 1.4743 7.55703 -31.6402C38.9912 -48.025 81.6001 -54.8031 124.445 -50.2499C166.767 -45.7311 204.168 -30.8641 227.057 -9.44314C251.513 13.4438 258.036 41.8844 245.9 72.8085C231.81 108.734 235.012 148.23 238.097 186.433C242.799 244.625 247.249 299.574 187.903 330.533C156.115 347.107 130.074 355.11 105.601 355.11H105.584ZM98.2695 -50.1464C64.8633 -50.1464 33.0246 -43.2475 8.21437 -30.3122C-54.9068 2.59537 -106.499 73.4466 -114.455 138.141C-119.528 179.361 -106.954 214.873 -78.1327 240.813C-12.9215 299.505 27.1086 331.895 64.8801 345.969C102.247 359.887 137.693 355.041 187.229 329.205C245.715 298.712 241.316 244.228 236.647 186.553C233.546 148.178 230.327 108.493 244.552 72.2566C256.435 41.9534 250.047 14.082 226.079 -8.33932C203.41 -29.5533 166.312 -44.2824 124.293 -48.7666C115.579 -49.698 106.865 -50.1464 98.2695 -50.1464Z" fill="url(#paint6_linear_2_4)"/>
<path d="M115.748 352.625C106.511 352.625 97.2412 351.47 87.7351 349.227C48.3455 339.914 4.64109 312.698 -67.2277 262.474C-99.3529 240.018 -116.275 205.904 -116.14 163.855C-115.955 98.1779 -72.9246 20.9107 -13.8149 -19.8787C15.4282 -40.0752 56.9078 -52.1137 99.9886 -52.9243C142.53 -53.7176 181.431 -43.6281 206.696 -25.2081C233.698 -5.54637 243.558 21.8766 235.198 54.077C225.489 91.4861 233.36 130.292 240.979 167.822C252.575 224.979 263.547 278.98 208.314 317.096C173.121 341.38 144.553 352.608 115.748 352.608V352.625ZM104.674 -51.4755C103.124 -51.4755 101.573 -51.4755 100.022 -51.4238C57.228 -50.6132 16.0349 -38.6781 -12.989 -18.637C-71.7448 21.8938 -114.505 98.6436 -114.691 163.855C-114.809 205.403 -98.1056 239.07 -66.4018 261.232C5.31528 311.353 48.9017 338.5 88.0554 347.779C126.788 356.937 161.391 347.692 207.488 315.889C261.912 278.324 251.041 224.806 239.546 168.15C231.894 130.447 223.972 91.4688 233.782 53.7148C241.973 22.1525 232.315 -4.71851 205.853 -23.9836C181.751 -41.5412 145.075 -51.4583 104.674 -51.4583V-51.4755Z" fill="url(#paint7_linear_2_4)"/>
<path d="M125.035 348.917C120.467 348.917 115.832 348.659 111.113 348.141C70.914 343.812 24.2937 322.253 -53.0192 281.36C-87.5715 263.078 -108.421 231.344 -113.326 189.588C-120.961 124.377 -87.4535 42.315 -33.6362 -5.54582C-7.00566 -29.2261 32.7211 -46.3526 75.3805 -52.527C117.501 -58.6325 157.312 -53.4584 184.599 -38.3326C213.741 -22.1893 226.787 3.80213 222.32 36.8132C217.146 75.1536 229.585 112.701 241.619 148.989C259.94 204.283 277.25 256.507 226.972 301.229C189.656 334.413 159.149 348.9 125.035 348.9V348.917ZM109.41 -53.5446C98.4547 -53.5446 87.1114 -52.7168 75.5828 -51.061C33.193 -44.9211 -6.26405 -27.9326 -32.6923 -4.42476C-86.1557 43.1429 -119.461 124.653 -111.876 189.399C-107.039 230.654 -86.4591 261.992 -52.345 280.032C24.8162 320.839 71.3017 342.346 111.281 346.658C150.823 350.918 184.06 337.431 226.029 300.108C275.565 256.042 258.407 204.266 240.254 149.471C228.169 113.011 215.663 75.2915 220.905 36.6062C225.27 4.25055 212.494 -21.2062 183.925 -37.0391C164.357 -47.8876 138.232 -53.5619 109.427 -53.5619L109.41 -53.5446Z" fill="url(#paint8_linear_2_4)"/>
<path d="M131.54 344.175C91.6281 344.175 43.1706 328.601 -36.6705 298.333C-73.1442 284.5 -97.6173 255.594 -107.444 214.753C-122.798 151.007 -99.3028 65.3754 -51.6038 11.1503C-27.9902 -15.6862 9.41052 -37.6418 51.0081 -49.0767C92.1001 -60.3736 132.214 -60.2183 161.104 -48.611C191.948 -36.2103 207.994 -12.0471 207.505 21.2744C206.932 59.977 223.753 95.6786 240.018 130.207C264.794 182.794 288.189 232.483 243.608 283.138C206.106 325.773 174.402 343.434 134.203 344.141C133.327 344.141 132.434 344.158 131.54 344.158V344.175ZM109.848 -55.9411C91.4259 -55.9411 71.5204 -53.1643 51.3789 -47.6279C10.0341 -36.2448 -27.0969 -14.4617 -50.5251 12.1679C-97.9207 66.0307 -121.281 151.094 -106.045 214.408C-96.3364 254.749 -72.1835 283.293 -36.1648 296.936C43.5077 327.153 91.8472 342.692 131.54 342.692C132.417 342.692 133.293 342.692 134.17 342.675C173.93 341.985 205.314 324.445 242.529 282.155C286.453 232.241 263.26 183.001 238.703 130.863C222.371 96.1787 205.465 60.3047 206.055 21.2572C206.544 -11.3917 190.819 -35.072 160.581 -47.214C146.103 -53.0263 128.759 -55.9411 109.865 -55.9411H109.848Z" fill="url(#paint9_linear_2_4)"/>
<path d="M131.862 338.984C95.6578 338.984 49.7623 329.688 -18.4153 313.148C-56.2711 303.972 -83.9972 278.343 -98.6272 239.019C-121.449 177.654 -108.336 89.7282 -67.4458 29.9668C-47.2033 0.38799 -12.7015 -26.0691 27.2275 -42.6091C66.6676 -58.9422 106.512 -63.7886 136.564 -55.8722C168.656 -47.4211 187.466 -25.431 190.938 7.70078C194.983 46.1792 215.917 79.5351 236.176 111.77C267.02 160.89 296.162 207.267 257.953 263.114C225.794 310.095 196.449 331.602 156.622 337.311C148.818 338.432 140.626 338.984 131.862 338.984ZM105.535 -58.1143C81.6178 -58.1143 54.6165 -52.3538 27.7837 -41.2294C-11.8925 -24.7928 -46.1583 1.47456 -66.2492 30.8292C-106.886 90.2111 -119.932 177.551 -97.2619 238.502C-82.8174 277.325 -55.4452 302.644 -18.0782 311.699C66.4317 332.206 116.625 341.554 156.436 335.845C195.809 330.188 224.883 308.87 256.773 262.269C294.426 207.25 265.537 161.269 234.963 112.581C214.619 80.1905 193.567 46.6966 189.505 7.856C186.101 -24.6204 167.678 -46.1448 136.21 -54.4407C126.856 -56.907 116.524 -58.1143 105.552 -58.1143H105.535Z" fill="url(#paint10_linear_2_4)"/>
<path d="M117.889 334.482C87.4999 334.482 50.0823 331.101 1.47313 325.582C-37.1917 321.184 -67.7663 299.211 -86.9639 262.009C-116.932 203.938 -114.387 115.029 -80.913 50.6281C-64.3448 18.7554 -33.2477 -11.8066 4.40586 -33.2103C41.6044 -54.3553 80.5726 -64.1344 111.333 -60.0123C144.199 -55.6316 165.47 -36.1423 172.869 -3.68317C181.465 34.0191 206.225 64.4948 230.159 93.9702C266.633 138.864 301.084 181.275 269.801 241.468C243.491 292.123 216.911 317.114 178.061 327.755C160.953 332.446 141.536 334.499 117.855 334.499L117.889 334.482ZM96.9555 -59.4604C69.1619 -59.4604 36.5142 -49.7675 5.11375 -31.934C-32.3039 -10.6683 -63.1987 19.6695 -79.6321 51.3007C-112.903 115.339 -115.448 203.645 -85.683 261.319C-66.7213 298.056 -36.5344 319.77 1.62482 324.099C87.9381 333.912 138.89 336.931 177.707 326.306C216.119 315.786 242.429 291.002 268.537 240.761C299.348 181.448 265.217 139.416 229.063 94.9188C205.011 65.3054 180.134 34.6917 171.47 -3.35547C164.223 -35.1592 143.374 -54.2345 111.164 -58.5463C106.613 -59.15 101.86 -59.4604 96.9723 -59.4604H96.9555Z" fill="url(#paint11_linear_2_4)"/>
<path d="M21.2272 335.447C-17.0331 335.447 -49.4786 317.458 -72.6539 283.378C-109.33 229.463 -117.386 140.917 -91.8346 72.8077C-79.1935 39.1067 -51.9562 4.88841 -17.1342 -21.0513C17.2664 -46.6805 54.7345 -61.2889 85.8148 -60.9957C118.951 -60.737 142.396 -44.059 153.605 -12.7727C166.617 23.5671 194.831 50.7313 222.103 77.016C263.65 117.029 302.887 154.835 279.021 218.477C258.93 272.029 235.536 300.16 198.253 315.561C160.768 331.049 109.715 334.412 22.6936 335.447C22.2048 335.447 21.716 335.447 21.2272 335.447ZM85.0394 -59.5124C54.4649 -59.5124 17.5866 -45.0938 -16.2915 -19.8612C-50.8944 5.92324 -77.9463 39.8829 -90.4862 73.3251C-115.87 141.02 -107.88 228.981 -71.474 282.516C-48.2819 316.613 -15.7521 334.464 22.6599 333.947C109.513 332.912 160.414 329.583 197.697 314.181C234.558 298.952 257.733 271.064 277.656 217.942C301.185 155.232 262.284 117.771 221.108 78.1025C193.702 51.7144 165.369 24.4122 152.239 -12.2552C141.25 -42.9207 118.277 -59.2537 85.7979 -59.5124C85.5451 -59.5124 85.2923 -59.5124 85.0394 -59.5124Z" fill="url(#paint12_linear_2_4)"/>
<path d="M28.9457 343.674C-3.2638 343.674 -32.3551 329.721 -55.9181 302.781C-98.7293 253.851 -117.286 166.96 -100.044 96.1779C-91.5154 61.1489 -68.5592 23.7916 -37.0745 -6.30463C-5.97741 -36.0215 29.5356 -55.1485 60.3462 -58.7704C93.2804 -62.651 118.529 -49.0086 133.378 -19.3607C150.62 15.0818 181.852 38.5379 212.056 61.2179C258.053 95.764 301.504 128.378 285.391 194.521C271.823 250.178 251.951 281.016 216.775 300.953C181.414 320.994 131.136 330.705 44.8903 342.571C39.4968 343.312 34.1707 343.692 28.9288 343.692L28.9457 343.674ZM70.9984 -57.9253C67.5937 -57.9253 64.1048 -57.7184 60.5147 -57.2872C29.9907 -53.6998 -5.21895 -34.7107 -36.08 -5.20082C-67.3625 24.6885 -90.1502 61.7698 -98.6281 96.5401C-115.769 166.874 -97.364 253.196 -54.8563 301.798C-27.7706 332.757 6.64682 346.348 44.7049 341.105C130.782 329.256 180.925 319.58 216.084 299.66C250.856 279.946 270.542 249.384 283.992 194.176C299.869 128.999 256.805 96.6608 211.196 62.4252C180.858 39.6418 149.491 16.0994 132.08 -18.6708C119.152 -44.4898 98.1683 -57.9253 70.9984 -57.9253Z" fill="url(#paint13_linear_2_4)"/>
<path d="M38.6202 350.832C11.5683 350.832 -14.1689 340.415 -37.0072 319.959C-85.313 276.738 -114.084 192.814 -105.387 120.41C-101.089 84.5704 -82.7511 44.6433 -55.0924 10.8389C-27.7708 -22.5343 5.19719 -45.9559 35.3504 -53.3894C67.5599 -61.3404 94.2578 -50.9576 112.528 -23.3794C133.749 8.66578 167.542 28.0343 200.224 46.782C249.996 75.326 297.004 102.283 288.897 169.944C282.071 226.877 266.008 259.957 233.478 284.137C200.763 308.438 152.019 324.34 67.8296 346.882C57.9864 349.521 48.2274 350.832 38.6371 350.832H38.6202ZM55.5761 -54.4933C49.2219 -54.4933 42.5811 -53.6481 35.6875 -51.9407C5.82081 -44.5762 -26.8606 -21.327 -53.9799 11.8048C-81.4701 45.3849 -99.6733 85.0361 -103.938 120.6C-112.567 192.555 -84.0152 275.927 -36.0465 318.856C-5.48874 346.21 30.3108 355.402 67.4588 345.451C151.48 322.943 200.089 307.11 232.619 282.93C264.795 259.025 280.672 226.238 287.447 169.754C295.453 103.077 248.85 76.3608 199.516 48.0755C166.683 29.2589 132.737 9.78684 111.332 -22.5515C97.3423 -43.6793 78.3132 -54.5105 55.593 -54.5105L55.5761 -54.4933Z" fill="url(#paint14_linear_2_4)"/>
<path d="M49.6256 356.679C27.1413 356.679 4.89298 349.297 -16.1755 334.671C-69.2849 297.78 -107.815 218.063 -107.815 145.108C-107.815 109.01 -94.3817 67.0817 -70.9535 30.0866C-47.8119 -6.44284 -17.8778 -33.7968 11.163 -44.9557C42.1926 -56.8735 69.9187 -49.8884 91.3412 -24.7938C116.219 4.35387 152.069 19.3761 186.739 33.8982C239.545 56.0263 289.419 76.9126 289.419 145.091C289.419 202.455 277.418 237.294 248.006 265.338C218.426 293.537 171.958 315.406 91.0715 348.279C77.318 353.867 63.4296 356.644 49.6256 356.644V356.679ZM39.5801 -49.095C30.6639 -49.095 21.3432 -47.2496 11.6855 -43.5415C-17.0857 -32.5033 -46.7501 -5.35627 -69.7231 30.9145C-93.0164 67.6509 -106.365 109.285 -106.365 145.108C-106.365 217.598 -68.0882 296.796 -15.3665 333.429C18.2251 356.765 54.8505 361.422 90.5321 346.917C171.25 314.113 217.617 292.312 247.012 264.268C276.103 236.535 287.952 202.006 287.952 145.108C287.952 77.9302 238.517 57.2336 186.183 35.2952C151.361 20.7042 115.359 5.61291 90.2456 -23.8107C75.919 -40.5922 58.7103 -49.1123 39.5633 -49.1123L39.5801 -49.095Z" fill="url(#paint15_linear_2_4)"/>
</g>
<defs>
<filter id="filter0_d_2_4" x="-128" y="-61" width="437.761" height="445.679" filterUnits="userSpaceOnUse" color-interpolation-filters="sRGB">
<feFlood flood-opacity="0" result="BackgroundImageFix"/>
<feColorMatrix in="SourceAlpha" type="matrix" values="0 0 0 0 0 0 0 0 0 0 0 0 0 0 0 0 0 0 127 0" result="hardAlpha"/>
<feOffset dy="17"/>
<feGaussianBlur stdDeviation="5.5"/>
<feComposite in2="hardAlpha" operator="out"/>
<feColorMatrix type="matrix" values="0 0 0 0 0 0 0 0 0 0 0 0 0 0 0 0 0 0 0.25 0"/>
<feBlend mode="normal" in2="BackgroundImageFix" result="effect1_dropShadow_2_4"/>
<feBlend mode="normal" in="SourceGraphic" in2="effect1_dropShadow_2_4" result="shape"/>
</filter>
<linearGradient id="paint0_linear_2_4" x1="-28.5286" y1="-87.643" x2="270.497" y2="444.835" gradientUnits="userSpaceOnUse">
<stop stop-color="white"/>
<stop offset="1" stop-color="#2980B9"/>
</linearGradient>
<linearGradient id="paint1_linear_2_4" x1="-25.3426" y1="-89.4355" x2="273.666" y2="443.043" gradientUnits="userSpaceOnUse">
<stop stop-color="#27AE60"/>
<stop offset="1" stop-color="#2980B9"/>
</linearGradient>
<linearGradient id="paint2_linear_2_4" x1="-22.579" y1="-90.9871" x2="276.447" y2="441.491" gradientUnits="userSpaceOnUse">
<stop stop-color="#27AE60"/>
<stop offset="1" stop-color="#2980B9"/>
</linearGradient>
<linearGradient id="paint3_linear_2_4" x1="-21.6867" y1="-91.5048" x2="277.339" y2="440.991" gradientUnits="userSpaceOnUse">
<stop stop-color="#27AE60"/>
<stop offset="1" stop-color="#2980B9"/>
</linearGradient>
<linearGradient id="paint4_linear_2_4" x1="-25.5786" y1="-89.2968" x2="273.447" y2="443.181" gradientUnits="userSpaceOnUse">
<stop stop-color="#27AE60"/>
<stop offset="1" stop-color="#2980B9"/>
</linearGradient>
<linearGradient id="paint5_linear_2_4" x1="-30.0293" y1="-86.8139" x2="268.997" y2="445.682" gradientUnits="userSpaceOnUse">
<stop stop-color="#27AE60"/>
<stop offset="1" stop-color="#2980B9"/>
</linearGradient>
<linearGradient id="paint6_linear_2_4" x1="-34.7822" y1="-84.1405" x2="264.244" y2="448.338" gradientUnits="userSpaceOnUse">
<stop stop-color="#27AE60"/>
<stop offset="1" stop-color="#2980B9"/>
</linearGradient>
<linearGradient id="paint7_linear_2_4" x1="-39.7881" y1="-81.3303" x2="259.238" y2="451.148" gradientUnits="userSpaceOnUse">
<stop stop-color="#27AE60"/>
<stop offset="1" stop-color="#2980B9"/>
</linearGradient>
<linearGradient id="paint8_linear_2_4" x1="-44.9963" y1="-78.3978" x2="254.03" y2="454.08" gradientUnits="userSpaceOnUse">
<stop stop-color="#27AE60"/>
<stop offset="1" stop-color="#2980B9"/>
</linearGradient>
<linearGradient id="paint9_linear_2_4" x1="-50.3902" y1="-75.3786" x2="248.636" y2="457.117" gradientUnits="userSpaceOnUse">
<stop stop-color="#27AE60"/>
<stop offset="1" stop-color="#2980B9"/>
</linearGradient>
<linearGradient id="paint10_linear_2_4" x1="-55.9172" y1="-72.2742" x2="243.109" y2="460.221" gradientUnits="userSpaceOnUse">
<stop stop-color="#27AE60"/>
<stop offset="1" stop-color="#2980B9"/>
</linearGradient>
<linearGradient id="paint11_linear_2_4" x1="-57.3163" y1="-71.4817" x2="241.71" y2="460.997" gradientUnits="userSpaceOnUse">
<stop stop-color="#27AE60"/>
<stop offset="1" stop-color="#2980B9"/>
</linearGradient>
<linearGradient id="paint12_linear_2_4" x1="-52.3439" y1="-74.276" x2="246.682" y2="458.202" gradientUnits="userSpaceOnUse">
<stop stop-color="#27AE60"/>
<stop offset="1" stop-color="#2980B9"/>
</linearGradient>
<linearGradient id="paint13_linear_2_4" x1="-47.4739" y1="-77.0007" x2="251.535" y2="455.478" gradientUnits="userSpaceOnUse">
<stop stop-color="#27AE60"/>
<stop offset="1" stop-color="#2980B9"/>
</linearGradient>
<linearGradient id="paint14_linear_2_4" x1="-43.1254" y1="-79.4499" x2="255.9" y2="453.028" gradientUnits="userSpaceOnUse">
<stop stop-color="#27AE60"/>
<stop offset="1" stop-color="#2980B9"/>
</linearGradient>
<linearGradient id="paint15_linear_2_4" x1="-39.6036" y1="-81.4334" x2="259.422" y2="451.045" gradientUnits="userSpaceOnUse">
<stop stop-color="#27AE60"/>
<stop offset="1" stop-color="#2980B9"/>
</linearGradient>
</defs>
</svg>
