<svg width="115" height="138" viewBox="0 0 115 138" fill="none" xmlns="http://www.w3.org/2000/svg">
<g filter="url(#filter0_d_2_111)">
<path d="M82.7962 156.008C79.5821 156.008 76.1407 155.536 72.4025 154.515C52.1203 148.952 40.9626 141.133 33.8904 127.519C26.7803 113.834 23.5599 94.5007 19.7775 61.3597C18.0852 46.55 23.3515 33.2716 35.0017 22.9655C53.1938 6.88286 85.1262 0.343821 110.921 7.41916C123.689 10.9213 137.208 19.9609 148.019 32.2248C158.696 44.3337 165.466 58.0708 166.59 69.9083C167.796 82.5534 162.637 92.1423 151.681 97.641C138.957 104.025 130.168 115.843 121.675 127.273C110.738 141.986 100.306 156.008 82.7899 156.008H82.7962ZM88.997 5.13825C68.9548 5.13825 48.5274 11.7419 35.3553 23.392C23.844 33.5688 18.6472 46.6792 20.3142 61.2951C24.0903 94.365 27.3044 113.646 34.3703 127.254C41.3604 140.713 52.4171 148.454 72.5414 153.972C76.2038 154.974 79.5884 155.439 82.7393 155.439C100.047 155.439 110.391 141.527 121.239 126.937C129.776 115.455 138.604 103.586 151.441 97.1435C162.176 91.7546 167.221 82.3596 166.047 69.9664C164.929 58.2453 158.21 44.6244 147.608 32.5996C136.867 20.4132 123.443 11.4317 110.769 7.96192C103.823 6.05578 96.4355 5.14471 88.9907 5.14471L88.997 5.13825Z" fill="url(#paint0_linear_2_111)"/>
<path d="M87.4817 156.467C85.5495 156.467 83.5162 156.318 81.3756 156.015C60.582 153.023 48.5718 146.652 39.9399 134.026C31.2574 121.329 25.7575 102.546 18.0538 70.1219C14.6124 55.6288 18.2559 41.7947 28.5927 30.1188C44.7326 11.878 75.642 1.40394 102.087 5.20976C115.177 7.09005 129.675 14.3786 141.869 25.2016C153.91 35.8889 162.264 48.6827 164.79 60.2875C167.493 72.6872 163.515 82.8511 153.298 89.6744C141.426 97.6027 134.114 110.429 127.042 122.828C117.204 140.081 107.859 156.467 87.4817 156.467ZM81.4514 155.459C105.8 158.955 115.891 141.276 126.568 122.551C133.672 110.093 141.022 97.2085 152.995 89.2092C163.009 82.5215 166.899 72.5644 164.253 60.4103C161.747 48.9153 153.456 36.2379 141.502 25.6216C129.391 14.8697 114.994 7.62635 102.005 5.75898C75.7304 1.97901 45.023 12.3756 28.9905 30.4871C18.78 42.0209 15.1807 55.6805 18.5779 69.9862C26.2627 102.339 31.75 121.077 40.3819 133.703C48.9191 146.193 60.8219 152.493 81.4514 155.459Z" fill="url(#paint1_linear_2_111)"/>
<path d="M91.3204 156.383C91.0362 156.383 90.7521 156.383 90.4616 156.377C69.4659 156.002 56.7864 151.175 46.7148 139.719C36.58 128.198 28.8889 110.242 17.3776 79.0197C12.2313 65.0629 14.2014 50.8799 23.0733 38.0021C36.921 17.8875 66.3655 3.64638 93.0569 4.11807C106.273 4.35714 121.529 9.77834 134.922 19.0054C148.145 28.1161 157.964 39.7661 161.853 50.9704C166.008 62.9435 163.274 73.521 153.948 81.572C143.112 90.9153 137.378 104.562 131.834 117.756C123.486 137.619 115.6 156.396 91.3204 156.396V156.383ZM90.4742 155.821C115.063 156.248 122.969 137.445 131.335 117.53C136.905 104.278 142.664 90.5729 153.594 81.1456C162.737 73.2625 165.415 62.8918 161.336 51.1577C157.484 40.0634 147.74 28.5102 134.613 19.4641C121.308 10.3017 106.159 4.90637 93.0442 4.67376C66.5107 4.20207 37.262 18.3527 23.5153 38.3252C14.7571 51.0479 12.8059 65.0564 17.8828 78.8259C29.3625 109.977 37.041 127.894 47.1126 139.351C57.0769 150.678 69.6364 155.453 90.4679 155.828L90.4742 155.821Z" fill="url(#paint2_linear_2_111)"/>
<path d="M87.8408 156.293C73.4311 156.293 63.2016 152.623 54.1151 144.533C42.6858 134.362 32.911 117.498 17.7688 87.943C10.9997 74.7357 11.2712 60.4106 18.5392 46.5184C29.8863 24.8271 57.4049 7.01279 83.9637 4.1568C97.1105 2.74174 112.903 6.22448 127.287 13.7069C141.495 21.0988 152.628 31.4372 157.824 42.0793C163.375 53.4451 161.923 64.2875 153.619 73.437C143.977 84.0661 139.91 98.3202 135.983 112.109C129.996 133.109 124.339 152.939 99.5163 155.608C95.3298 156.06 91.4527 156.286 87.8345 156.286L87.8408 156.293ZM89.8993 4.4088C87.8913 4.4088 85.9275 4.51219 84.0205 4.71249C57.6259 7.54909 30.2905 25.2407 19.0191 46.7833C11.8395 60.5075 11.5743 74.6517 18.255 87.6846C33.3656 117.175 43.1152 133.994 54.475 144.113C65.7148 154.115 78.7542 157.281 99.4658 155.059C123.922 152.429 129.529 132.766 135.465 111.954C139.411 98.107 143.497 83.7883 153.227 73.0622C161.361 64.0936 162.781 53.4709 157.345 42.3313C152.198 31.7991 141.154 21.5447 127.048 14.2044C114.842 7.85278 101.625 4.40234 89.9056 4.40234L89.8993 4.4088Z" fill="url(#paint3_linear_2_111)"/>
<path d="M88.2267 156.428C78.1172 156.428 69.8894 153.805 62.0405 148.384C49.4873 139.713 37.7739 124.192 19.2282 96.75C10.9372 84.4861 9.49121 70.2321 15.0543 55.5386C23.7367 32.5939 48.9253 11.4842 74.9473 5.33281C87.8289 2.28945 103.912 3.77559 119.086 9.41002C134.07 14.9734 146.345 23.8515 152.774 33.7634C159.637 44.3473 159.486 55.2931 152.338 65.4118C144.034 77.1653 141.698 91.8199 139.437 105.99C135.996 127.578 132.744 147.97 108.427 153.715C100.83 155.511 94.2002 156.422 88.2267 156.422V156.428ZM89.0729 4.34421C84.1412 4.34421 79.4243 4.8482 75.0736 5.87558C49.2094 11.9882 24.1851 32.9557 15.5594 55.7389C10.0658 70.2515 11.4866 84.3246 19.6702 96.4334C38.178 123.817 49.8598 139.299 62.3436 147.919C74.6884 156.448 88.0057 157.966 108.307 153.172C132.27 147.512 135.491 127.3 138.901 105.9C141.167 91.6649 143.516 76.9391 151.896 65.0823C158.899 55.1703 159.05 44.4442 152.319 34.0671C145.954 24.2521 133.773 15.458 118.896 9.9334C108.951 6.24389 98.6204 4.33774 89.0665 4.33774L89.0729 4.34421Z" fill="url(#paint4_linear_2_111)"/>
<path d="M90.8344 156.357C83.5096 156.357 76.9236 154.645 70.3628 151.22C56.8687 144.177 43.3936 130.233 21.7159 105.311C12.0231 94.1652 8.89747 80.202 12.6672 64.927C18.5523 41.0711 41.0383 16.9762 66.1384 7.62644C78.559 3.00001 94.7052 2.47017 110.435 6.1726C125.968 9.82981 139.216 17.1055 146.775 26.1386C154.851 35.7921 156 46.6733 150.109 57.6061C143.264 70.3029 142.695 85.145 142.14 99.496C141.294 121.355 140.498 142 117.046 150.729C106.962 154.483 98.5002 156.357 90.8407 156.357H90.8344ZM89.7609 4.28585C81.2679 4.28585 73.217 5.57815 66.3215 8.14982C41.3793 17.435 19.0386 41.3748 13.1913 65.0627C9.46577 80.1567 12.5536 93.9456 22.12 104.943C43.7535 129.813 57.1908 143.725 70.6028 150.729C83.8695 157.649 97.2689 157.501 116.844 150.212C139.955 141.606 140.744 121.142 141.584 99.4766C142.14 85.061 142.721 70.1543 149.622 57.3412C155.394 46.628 154.264 35.9666 146.351 26.5069C138.869 17.5578 125.728 10.3467 110.308 6.71537C103.419 5.09353 96.4543 4.29231 89.7609 4.29231V4.28585Z" fill="url(#paint5_linear_2_111)"/>
<path d="M94.3894 155.892C89.1483 155.892 84.103 154.91 78.9504 152.991C64.7175 147.686 49.6827 135.525 25.2014 113.492C14.2647 103.644 9.49091 90.1722 11.4168 74.5418C14.4162 50.1303 33.8649 23.4055 57.6642 10.9995C69.4408 4.86104 85.4038 2.32167 101.455 4.02751C117.311 5.72042 131.323 11.2902 139.898 19.3154C149.06 27.8898 151.504 38.5448 146.958 50.1303C141.679 63.5896 142.878 78.3864 144.034 92.6986C145.796 114.5 147.463 135.086 125.229 146.684C113.32 152.894 103.564 155.892 94.3957 155.892H94.3894ZM91.6489 4.06628C79.1335 4.06628 67.2054 6.65088 57.9105 11.497C34.2627 23.8255 14.934 50.3693 11.9536 74.6064C10.0529 90.0494 14.7635 103.354 25.5613 113.072C49.9921 135.06 64.989 147.195 79.1398 152.467C93.1391 157.682 106.418 155.866 124.977 146.187C146.888 134.763 145.24 114.351 143.491 92.7438C142.329 78.367 141.123 63.4991 146.452 49.9235C150.904 38.5707 148.511 28.1289 139.532 19.7289C131.039 11.7813 117.14 6.26319 101.398 4.5832C98.1339 4.23428 94.8693 4.06628 91.6489 4.06628Z" fill="url(#paint6_linear_2_111)"/>
<path d="M98.197 154.961C94.7366 154.961 91.2636 154.528 87.7023 153.688C72.9453 150.199 56.5718 140.003 29.6468 121.187C17.6113 112.774 11.2716 99.9932 11.3221 84.2401C11.3915 59.6347 27.5125 30.6872 49.6574 15.4058C60.6131 7.83939 76.153 3.32927 92.2929 3.02557C108.231 2.72835 122.805 6.50832 132.27 13.4092C142.386 20.7753 146.08 31.0491 142.948 43.1127C139.311 57.1277 142.26 71.666 145.114 85.7262C149.458 107.14 153.569 127.371 132.876 141.65C119.692 150.748 108.988 154.955 98.197 154.955V154.961ZM94.0483 3.56834C93.4674 3.56834 92.8865 3.56834 92.3055 3.58773C76.273 3.89142 60.8404 8.36277 49.9668 15.871C27.9545 31.0555 11.9346 59.8092 11.8651 84.2401C11.8209 99.8058 18.0786 112.419 29.9562 120.722C56.8244 139.499 73.1536 149.669 87.8222 153.145C102.333 156.577 115.297 153.113 132.567 141.198C152.956 127.125 148.883 107.075 144.577 85.849C141.71 71.7242 138.742 57.1212 142.417 42.977C145.486 31.1525 141.868 21.0854 131.954 13.868C122.925 7.29016 109.184 3.5748 94.0483 3.5748V3.56834Z" fill="url(#paint7_linear_2_111)"/>
<path d="M101.676 153.572C99.9647 153.572 98.2282 153.475 96.4602 153.281C81.4001 151.659 63.9342 143.583 34.9696 128.262C22.0248 121.413 14.2138 109.524 12.3763 93.8807C9.51581 69.4498 22.069 38.706 42.2312 20.7754C52.2081 11.9038 67.0914 5.48751 83.0734 3.17429C98.8533 0.886921 113.768 2.82537 123.991 8.4921C134.909 14.5401 139.797 24.2775 138.123 36.6448C136.185 51.0087 140.845 65.0754 145.353 78.6704C152.217 99.3859 158.702 118.951 139.866 135.706C125.886 148.138 114.456 153.566 101.676 153.566V153.572ZM95.8224 2.79306C91.718 2.79306 87.4683 3.10321 83.1492 3.72352C67.2682 6.02381 52.486 12.3884 42.5848 21.1954C22.5553 39.0162 10.0778 69.5532 12.9193 93.8097C14.7316 109.266 22.4416 121.006 35.2221 127.765C64.1299 143.053 81.5453 151.11 96.5233 152.726C111.337 154.322 123.789 149.269 139.512 135.286C158.071 118.777 151.643 99.3795 144.842 78.8513C140.314 65.1917 135.629 51.0604 137.593 36.5673C139.228 24.4455 134.442 14.9084 123.739 8.97671C116.408 4.91243 106.62 2.7866 95.8287 2.7866L95.8224 2.79306Z" fill="url(#paint8_linear_2_111)"/>
<path d="M104.113 151.795C89.1607 151.795 71.0065 145.961 41.0947 134.621C27.4302 129.439 18.2615 118.609 14.5801 103.308C8.82764 79.4267 17.6301 47.3454 35.5001 27.0304C44.3467 16.9763 58.3586 8.75085 73.9428 4.46688C89.3375 0.234599 104.366 0.292753 115.189 4.64134C126.745 9.28715 132.756 18.3397 132.573 30.8233C132.358 45.3229 138.66 58.6982 144.754 71.6341C154.036 91.3352 162.8 109.951 146.099 128.928C132.049 144.901 120.171 151.518 105.111 151.783C104.783 151.783 104.448 151.789 104.113 151.789V151.795ZM95.9867 1.8952C89.0849 1.8952 81.6275 2.9355 74.0817 5.00964C58.5922 9.27423 44.6814 17.4351 35.9042 27.4116C18.1478 47.5909 9.39594 79.459 15.1042 103.179C18.7414 118.293 27.7901 128.986 41.2842 134.097C71.1328 145.418 89.2428 151.24 104.113 151.24C104.442 151.24 104.77 151.24 105.098 151.233C119.994 150.975 131.752 144.403 145.694 128.56C162.15 109.86 153.461 91.4128 144.261 71.8797C138.142 58.8856 131.809 45.4457 132.03 30.8169C132.213 18.5852 126.322 9.71361 114.993 5.16472C109.569 2.9872 103.072 1.8952 95.993 1.8952H95.9867Z" fill="url(#paint9_linear_2_111)"/>
<path d="M104.234 149.851C90.6702 149.851 73.4758 146.368 47.9337 140.171C33.7513 136.734 23.364 127.132 17.883 112.4C9.33316 89.4098 14.2458 56.4691 29.5648 34.08C37.1485 22.9986 50.0743 13.0866 65.0334 6.89006C79.8093 0.771025 94.7368 -1.04465 105.996 1.92117C118.018 5.0873 125.065 13.3257 126.366 25.7382C127.882 40.1538 135.724 52.6504 143.314 64.7269C154.87 83.1292 165.788 100.504 151.473 121.427C139.424 139.028 128.431 147.085 113.51 149.224C110.586 149.644 107.517 149.851 104.234 149.851ZM94.3705 1.08118C85.4102 1.08118 75.2944 3.23932 65.2417 7.40698C50.3774 13.5648 37.54 23.4056 30.0131 34.4031C14.7889 56.65 9.90147 89.371 18.3945 112.206C23.806 126.751 34.0607 136.236 48.06 139.629C79.7209 147.311 98.5255 150.813 113.44 148.675C128.191 146.555 139.083 138.569 151.031 121.11C165.137 100.498 154.314 83.2714 142.86 65.0306C135.238 52.8959 127.351 40.3477 125.829 25.7964C124.554 13.6294 117.652 5.56545 105.863 2.45748C102.358 1.53348 98.4876 1.08118 94.3768 1.08118H94.3705Z" fill="url(#paint10_linear_2_111)"/>
<path d="M98.9994 148.164C87.6143 148.164 73.5962 146.897 55.3851 144.83C40.8997 143.182 29.4452 134.95 22.253 121.013C11.0258 99.2568 11.9793 65.9478 24.5199 41.8205C30.727 29.8797 42.3773 18.4299 56.4839 10.4112C70.42 2.48941 85.0191 -1.17426 96.543 0.370041C108.856 2.01126 116.825 9.31275 119.597 21.4733C122.818 35.5981 132.094 47.0156 141.06 58.0583C154.725 74.8775 167.632 90.7664 155.912 113.317C146.055 132.294 136.097 141.657 121.542 145.644C115.133 147.401 107.859 148.17 98.9868 148.17L98.9994 148.164ZM91.1568 0.576809C80.7442 0.576809 68.513 4.20817 56.7491 10.8894C42.7309 18.8564 31.1564 30.2222 24.9998 42.0725C12.535 66.0641 11.5815 99.1469 22.7329 120.754C29.8367 134.517 41.1459 142.652 55.442 144.274C87.7785 147.951 106.867 149.081 121.41 145.101C135.8 141.16 145.657 131.874 155.438 113.052C166.981 90.831 154.194 75.0843 140.65 58.4137C131.639 47.3193 122.319 35.8501 119.073 21.5961C116.358 9.68106 108.547 2.53464 96.4799 0.919268C94.775 0.693116 92.9943 0.576809 91.1631 0.576809H91.1568Z" fill="url(#paint11_linear_2_111)"/>
<path d="M62.7857 148.526C48.4518 148.526 36.2964 141.786 27.6139 129.018C13.8736 108.82 10.8552 75.6463 20.428 50.1299C25.1639 37.5041 35.3681 24.6845 48.4139 14.9664C61.3018 5.36466 75.3389 -0.108223 86.9828 0.00162237C99.3972 0.0985448 108.181 6.34681 112.38 18.068C117.255 31.6823 127.825 41.8592 138.042 51.7065C153.607 66.6972 168.307 80.8608 159.366 104.704C151.839 124.767 143.075 135.305 129.107 141.075C115.063 146.878 95.9368 148.138 63.335 148.526C63.1519 148.526 62.9688 148.526 62.7857 148.526ZM86.6924 0.557311C75.2379 0.557311 61.4218 5.95912 48.7296 15.4123C35.7659 25.0722 25.6312 37.7949 20.9332 50.3237C11.4236 75.6851 14.4166 108.639 28.0559 128.695C36.7447 141.47 48.9317 148.157 63.3224 147.963C95.861 147.576 114.931 146.329 128.898 140.559C142.708 134.853 151.391 124.405 158.854 104.503C167.67 81.0094 153.096 66.975 137.669 52.1136C127.402 42.2275 116.787 31.9989 111.868 18.2618C107.751 6.77327 99.1446 0.654233 86.9765 0.557311C86.8818 0.557311 86.7871 0.557311 86.6924 0.557311Z" fill="url(#paint12_linear_2_111)"/>
<path d="M65.6771 151.608C53.6101 151.608 42.7113 146.38 33.8836 136.288C17.8448 117.956 10.8925 85.4033 17.3523 58.8853C20.5474 45.762 29.1477 31.7664 40.9432 20.4911C52.5935 9.35798 65.8981 2.19218 77.441 0.835266C89.7796 -0.61857 99.2387 4.49247 104.802 15.5998C111.261 28.5034 122.962 37.291 134.278 45.7879C151.51 58.7303 167.789 70.9489 161.752 95.7288C156.669 116.58 149.224 128.133 136.046 135.603C122.798 143.111 103.962 146.749 71.6506 151.194C69.63 151.472 67.6346 151.614 65.6708 151.614L65.6771 151.608ZM81.4318 1.15188C80.1563 1.15188 78.8492 1.22942 77.5042 1.39096C66.0686 2.73495 52.8776 9.84905 41.3158 20.9047C29.5961 32.1024 21.0589 45.9947 17.8827 59.021C11.4608 85.371 18.3563 117.711 34.2814 135.919C44.4288 147.518 57.323 152.609 71.5812 150.645C103.829 146.206 122.615 142.581 135.787 135.118C148.814 127.733 156.189 116.283 161.228 95.5995C167.176 71.1816 151.043 59.0663 133.956 46.2402C122.59 37.7046 110.838 28.8846 104.316 15.8582C99.4723 6.18538 91.6108 1.15188 81.4318 1.15188Z" fill="url(#paint13_linear_2_111)"/>
<path d="M69.3017 154.289C59.167 154.289 49.5247 150.386 40.9686 142.723C22.8712 126.531 12.0924 95.089 15.3507 67.9637C16.9609 54.5367 23.831 39.5783 34.1931 26.9138C44.4289 14.4108 56.7801 5.63609 68.0767 2.85119C80.1437 -0.127563 90.1459 3.76226 96.9908 14.0942C104.941 26.0996 117.601 33.3559 129.845 40.3795C148.492 51.0733 166.103 61.1726 163.066 86.5211C160.508 107.85 154.491 120.244 142.304 129.303C130.047 138.407 111.786 144.364 80.2448 152.81C76.5571 153.798 72.901 154.289 69.3081 154.289H69.3017ZM75.6541 2.43765C73.2736 2.43765 70.7856 2.75426 68.203 3.39395C57.0137 6.15301 44.7699 14.8631 34.6099 27.2756C24.3109 39.8562 17.4913 54.7111 15.8937 68.0347C12.6607 94.9921 23.3574 126.227 41.3285 142.31C52.7767 152.558 66.1887 156.002 80.1059 152.273C111.584 143.841 129.795 137.909 141.982 128.85C154.036 119.895 159.984 107.611 162.523 86.45C165.522 61.4699 148.062 51.461 129.58 40.8642C117.279 33.8147 104.562 26.5196 96.5425 14.4043C91.3015 6.48901 84.1724 2.43119 75.6604 2.43119L75.6541 2.43765Z" fill="url(#paint14_linear_2_111)"/>
<path d="M73.4251 156.48C65.0016 156.48 56.6665 153.714 48.7733 148.235C28.8764 134.414 14.4414 104.549 14.4414 77.2165C14.4414 63.6926 19.4741 47.9847 28.2512 34.1248C36.921 20.4393 48.1356 10.1914 59.0155 6.01079C70.6405 1.5459 81.0278 4.1628 89.0535 13.5643C98.3737 24.4842 111.805 30.1122 124.794 35.5528C144.577 43.8428 163.262 51.6677 163.262 77.21C163.262 98.7009 158.766 111.753 147.747 122.26C136.665 132.824 119.256 141.017 88.9525 153.333C83.7999 155.426 78.5967 156.467 73.4251 156.467V156.48ZM69.6617 4.46003C66.3213 4.46003 62.8294 5.15141 59.2112 6.54064C48.4324 10.676 37.3188 20.8464 28.7122 34.4349C19.9855 48.1979 14.9845 63.7959 14.9845 77.2165C14.9845 104.374 29.3247 134.045 49.0764 147.77C61.6612 156.512 75.3826 158.257 88.7504 152.822C118.991 140.533 136.362 132.365 147.374 121.859C158.273 111.469 162.712 98.533 162.712 77.2165C162.712 52.0489 144.192 44.2952 124.585 36.0761C111.539 30.6097 98.0517 24.9559 88.6431 13.9326C83.2758 7.64555 76.8287 4.45357 69.6554 4.45357L69.6617 4.46003Z" fill="url(#paint15_linear_2_111)"/>
</g>
<defs>
<filter id="filter0_d_2_111" x="0" y="0" width="177.761" height="184.48" filterUnits="userSpaceOnUse" color-interpolation-filters="sRGB">
<feFlood flood-opacity="0" result="BackgroundImageFix"/>
<feColorMatrix in="SourceAlpha" type="matrix" values="0 0 0 0 0 0 0 0 0 0 0 0 0 0 0 0 0 0 127 0" result="hardAlpha"/>
<feOffset dy="17"/>
<feGaussianBlur stdDeviation="5.5"/>
<feComposite in2="hardAlpha" operator="out"/>
<feColorMatrix type="matrix" values="0 0 0 0 0 0 0 0 0 0 0 0 0 0 0 0 0 0 0.25 0"/>
<feBlend mode="normal" in2="BackgroundImageFix" result="effect1_dropShadow_2_111"/>
<feBlend mode="normal" in="SourceGraphic" in2="effect1_dropShadow_2_111" result="shape"/>
</filter>
<linearGradient id="paint0_linear_2_111" x1="44.1451" y1="-9.98165" x2="156.173" y2="189.507" gradientUnits="userSpaceOnUse">
<stop stop-color="white"/>
<stop offset="1" stop-color="#2980B9"/>
</linearGradient>
<linearGradient id="paint1_linear_2_111" x1="45.3388" y1="-10.6532" x2="157.36" y2="188.835" gradientUnits="userSpaceOnUse">
<stop stop-color="#27AE60"/>
<stop offset="1" stop-color="#2980B9"/>
</linearGradient>
<linearGradient id="paint2_linear_2_111" x1="46.3738" y1="-11.2344" x2="158.401" y2="188.254" gradientUnits="userSpaceOnUse">
<stop stop-color="#27AE60"/>
<stop offset="1" stop-color="#2980B9"/>
</linearGradient>
<linearGradient id="paint3_linear_2_111" x1="46.7082" y1="-11.4283" x2="158.736" y2="188.067" gradientUnits="userSpaceOnUse">
<stop stop-color="#27AE60"/>
<stop offset="1" stop-color="#2980B9"/>
</linearGradient>
<linearGradient id="paint4_linear_2_111" x1="45.2502" y1="-10.6012" x2="157.278" y2="188.887" gradientUnits="userSpaceOnUse">
<stop stop-color="#27AE60"/>
<stop offset="1" stop-color="#2980B9"/>
</linearGradient>
<linearGradient id="paint5_linear_2_111" x1="43.583" y1="-9.67098" x2="155.611" y2="189.824" gradientUnits="userSpaceOnUse">
<stop stop-color="#27AE60"/>
<stop offset="1" stop-color="#2980B9"/>
</linearGradient>
<linearGradient id="paint6_linear_2_111" x1="41.8022" y1="-8.66933" x2="153.83" y2="190.819" gradientUnits="userSpaceOnUse">
<stop stop-color="#27AE60"/>
<stop offset="1" stop-color="#2980B9"/>
</linearGradient>
<linearGradient id="paint7_linear_2_111" x1="39.9268" y1="-7.61651" x2="151.954" y2="191.872" gradientUnits="userSpaceOnUse">
<stop stop-color="#27AE60"/>
<stop offset="1" stop-color="#2980B9"/>
</linearGradient>
<linearGradient id="paint8_linear_2_111" x1="37.9753" y1="-6.51795" x2="150.003" y2="192.97" gradientUnits="userSpaceOnUse">
<stop stop-color="#27AE60"/>
<stop offset="1" stop-color="#2980B9"/>
</linearGradient>
<linearGradient id="paint9_linear_2_111" x1="35.9547" y1="-5.3869" x2="147.982" y2="194.108" gradientUnits="userSpaceOnUse">
<stop stop-color="#27AE60"/>
<stop offset="1" stop-color="#2980B9"/>
</linearGradient>
<linearGradient id="paint10_linear_2_111" x1="33.8839" y1="-4.22371" x2="145.911" y2="195.271" gradientUnits="userSpaceOnUse">
<stop stop-color="#27AE60"/>
<stop offset="1" stop-color="#2980B9"/>
</linearGradient>
<linearGradient id="paint11_linear_2_111" x1="33.3602" y1="-3.92686" x2="145.388" y2="195.562" gradientUnits="userSpaceOnUse">
<stop stop-color="#27AE60"/>
<stop offset="1" stop-color="#2980B9"/>
</linearGradient>
<linearGradient id="paint12_linear_2_111" x1="35.2229" y1="-4.97373" x2="147.25" y2="194.515" gradientUnits="userSpaceOnUse">
<stop stop-color="#27AE60"/>
<stop offset="1" stop-color="#2980B9"/>
</linearGradient>
<linearGradient id="paint13_linear_2_111" x1="37.0472" y1="-5.99453" x2="149.068" y2="193.494" gradientUnits="userSpaceOnUse">
<stop stop-color="#27AE60"/>
<stop offset="1" stop-color="#2980B9"/>
</linearGradient>
<linearGradient id="paint14_linear_2_111" x1="38.6764" y1="-6.91213" x2="150.704" y2="192.576" gradientUnits="userSpaceOnUse">
<stop stop-color="#27AE60"/>
<stop offset="1" stop-color="#2980B9"/>
</linearGradient>
<linearGradient id="paint15_linear_2_111" x1="39.9962" y1="-7.65527" x2="152.024" y2="191.833" gradientUnits="userSpaceOnUse">
<stop stop-color="#27AE60"/>
<stop offset="1" stop-color="#2980B9"/>
</linearGradient>
</defs>
</svg>
